<?xml version="1.0" encoding="UTF-8" standalone="no"?>
<!-- Created with Inkscape (http://www.inkscape.org/) -->

<svg
   xmlns:dc="http://purl.org/dc/elements/1.1/"
   xmlns:cc="http://creativecommons.org/ns#"
   xmlns:rdf="http://www.w3.org/1999/02/22-rdf-syntax-ns#"
   xmlns:svg="http://www.w3.org/2000/svg"
   xmlns="http://www.w3.org/2000/svg"
   xmlns:sodipodi="http://sodipodi.sourceforge.net/DTD/sodipodi-0.dtd"
   xmlns:inkscape="http://www.inkscape.org/namespaces/inkscape"
   version="1.1"
   id="svg29"
   xml:space="preserve"
   width="1600"
   height="1600"
   viewBox="0 0 1600 1600"
   sodipodi:docname="hero_mobile_background.svg"
   inkscape:version="0.92.3 (2405546, 2018-03-11)"><metadata
     id="metadata35"><rdf:RDF><cc:Work
         rdf:about=""><dc:format>image/svg+xml</dc:format><dc:type
           rdf:resource="http://purl.org/dc/dcmitype/StillImage" /><dc:title></dc:title></cc:Work></rdf:RDF></metadata><defs
     id="defs33" /><sodipodi:namedview
     pagecolor="#ffffff"
     bordercolor="#666666"
     borderopacity="1"
     objecttolerance="10"
     gridtolerance="10"
     guidetolerance="10"
     inkscape:pageopacity="0"
     inkscape:pageshadow="2"
     inkscape:window-width="1299"
     inkscape:window-height="713"
     id="namedview31"
     showgrid="false"
     inkscape:zoom="0.3325"
     inkscape:cx="800"
     inkscape:cy="800"
     inkscape:window-x="67"
     inkscape:window-y="27"
     inkscape:window-maximized="1"
     inkscape:current-layer="g39" /><g
     id="g37"
     inkscape:groupmode="layer"
     inkscape:label="ink_ext_XXXXXX"
     transform="matrix(1.3333333,0,0,-1.3333333,0,1600)"><g
       id="g39"
       transform="scale(0.1)"><path
         d="M 8042.45,20.6992 8022.85,0.101563 8022.76,0 h 85.23 c -1.24,8.10156 -4.91,15.8984 -11.29,21.8984 -15.33,14.7032 -39.62,14.1016 -54.25,-1.1992"
         style="fill:#3f3c3c;fill-opacity:1;fill-rule:nonzero;stroke:none"
         id="path41"
         inkscape:connector-curvature="0" /><path
         d="m 8297.25,287.801 -19.59,-20.602 c -16.96,-17.801 -17.17,-46 0,-64 17.69,-18.597 47.07,-19.297 65.61,-1.597 l 20.55,19.597 1.57,1.602 c 17.95,18.801 17.25,48.601 -1.56,66.5 -18.83,18 -48.62,17.301 -66.58,-1.5"
         style="fill:#3f3c3c;fill-opacity:1;fill-rule:nonzero;stroke:none"
         id="path43"
         inkscape:connector-curvature="0" /><path
         d="M 8553.52,553.398 8533.78,533 c -19.81,-20.5 -19.99,-53.301 0,-74 20.44,-21.098 54.14,-21.699 75.29,-1.301 l 20.41,19.801 1.29,1.301 c 20.63,21.301 20.05,55.301 -1.29,75.898 -21.34,20.703 -55.35,20.102 -75.96,-1.301"
         style="fill:#3f3c3c;fill-opacity:1;fill-rule:nonzero;stroke:none"
         id="path45"
         inkscape:connector-curvature="0" /><path
         d="m 8810.11,818.801 -19.81,-20.403 c -22.35,-22.996 -22.53,-59.796 0,-82.996 22.93,-23.504 60.61,-24.101 84.17,-1.101 l 20.34,19.801 1.16,1.097 c 23.07,23.703 22.56,61.602 -1.16,84.703 -23.71,23.098 -61.63,22.598 -84.7,-1.101"
         style="fill:#3f3c3c;fill-opacity:1;fill-rule:nonzero;stroke:none"
         id="path47"
         inkscape:connector-curvature="0" /><path
         d="m 9068.39,1082.4 -19.86,-20.3 c -24.06,-24.5 -24.19,-63.998 -0.01,-88.702 24.51,-25 64.64,-25.398 89.65,-0.898 l 20.29,19.801 0.92,1 c 24.62,25.099 24.2,65.399 -0.92,89.999 -25.13,24.7 -65.45,24.2 -90.07,-0.9"
         style="fill:#3f3c3c;fill-opacity:1;fill-rule:nonzero;stroke:none"
         id="path49"
         inkscape:connector-curvature="0" /><path
         d="m 9326.67,1346.1 -19.87,-20.3 c -25.49,-26.1 -25.63,-67.9 0,-94.1 25.97,-26.5 68.51,-26.9 95.02,-0.9 l 20.28,19.8 0.98,1 c 26.08,26.6 25.64,69.4 -0.98,95.4 -26.62,26.1 -69.35,25.7 -95.43,-0.9"
         style="fill:#3f3c3c;fill-opacity:1;fill-rule:nonzero;stroke:none"
         id="path51"
         inkscape:connector-curvature="0" /><path
         d="m 9586.6,1608 -20,-20.1 c -26.63,-26.8 -26.68,-70.2 0,-97 26.79,-27 70.37,-27.1 97.35,-0.3 l 20.13,20 0.33,0.3 c 26.84,27 26.68,70.7 -0.33,97.5 -27.01,26.8 -70.65,26.7 -97.48,-0.4"
         style="fill:#3f3c3c;fill-opacity:1;fill-rule:nonzero;stroke:none"
         id="path53"
         inkscape:connector-curvature="0" /><path
         d="m 9846.67,1869.9 -20,-20.1 c -27.11,-27.4 -27.16,-71.5 0,-98.8 27.29,-27.5 71.66,-27.7 99.13,-0.4 l 20.14,20 0.34,0.4 c 27.31,27.5 27.16,71.9 -0.34,99.2 -27.5,27.4 -71.95,27.2 -99.27,-0.3"
         style="fill:#3f3c3c;fill-opacity:1;fill-rule:nonzero;stroke:none"
         id="path55"
         inkscape:connector-curvature="0" /><path
         d="m 10107.6,2130.84 -20.1,-20 -0.3,-0.34 c -27.4,-27.53 -27.2,-72.02 0.3,-99.38 27.5,-27.32 72,-27.22 99.4,0.34 l 20,20.14 c 27.1,27.35 27.2,71.52 0,98.91 -27.3,27.5 -71.8,27.64 -99.3,0.33"
         style="fill:#3f3c3c;fill-opacity:1;fill-rule:nonzero;stroke:none"
         id="path57"
         inkscape:connector-curvature="0" /><path
         d="m 10369.5,2390.92 -20.1,-20.01 -0.4,-0.34 c -26.8,-27.03 -26.7,-70.73 0.4,-97.58 27,-26.86 70.7,-26.71 97.6,0.33 l 20,20.14 c 26.6,26.85 26.7,70.24 0,97.13 -26.9,26.99 -70.5,27.14 -97.5,0.33"
         style="fill:#3f3c3c;fill-opacity:1;fill-rule:nonzero;stroke:none"
         id="path59"
         inkscape:connector-curvature="0" /><path
         d="m 10631.5,2650.8 -20.2,-19.87 -1,-0.99 c -26.2,-26.7 -25.7,-69.55 1,-95.7 26.7,-26.16 69.5,-25.71 95.7,0.98 l 19.8,20.29 c 25.6,26.12 25.7,68.06 0,94.3 -26,26.59 -68.7,27.03 -95.3,0.99"
         style="fill:#3f3c3c;fill-opacity:1;fill-rule:nonzero;stroke:none"
         id="path61"
         inkscape:connector-curvature="0" /><path
         d="m 10965.2,2798.88 19.9,20.28 c 24.1,24.65 24.2,64.22 0,88.97 -24.6,25.08 -64.8,25.49 -89.9,0.93 l -20.3,-19.87 -0.9,-0.93 c -24.7,-25.19 -24.3,-65.63 0.9,-90.31 25.2,-24.69 65.6,-24.26 90.3,0.93"
         style="fill:#3f3c3c;fill-opacity:1;fill-rule:nonzero;stroke:none"
         id="path63"
         inkscape:connector-curvature="0" /><path
         d="m 11223.5,3062.54 19.9,20.28 c 22.6,23.17 22.8,60.36 0,83.63 -23.1,23.57 -61,23.97 -84.5,0.87 l -20.3,-19.86 -0.9,-0.88 c -23.2,-23.69 -22.8,-61.72 0.9,-84.92 23.7,-23.2 61.7,-22.81 84.9,0.88"
         style="fill:#3f3c3c;fill-opacity:1;fill-rule:nonzero;stroke:none"
         id="path65"
         inkscape:connector-curvature="0" /><path
         d="m 11402.6,3402.78 c -20.7,-21.41 -20.1,-55.55 1.3,-76.26 21.4,-20.69 55.5,-20.1 76.2,1.31 l 19.8,20.42 c 19.8,20.62 20,53.52 0,74.28 -20.5,21.22 -54.4,21.81 -75.6,1.29 l -20.4,-19.73 -1.3,-1.31"
         style="fill:#3f3c3c;fill-opacity:1;fill-rule:nonzero;stroke:none"
         id="path67"
         inkscape:connector-curvature="0" /><path
         d="m 11736.4,3593.48 19.6,20.55 c 17,17.9 17.2,46.29 0,64.37 -17.8,18.64 -47.3,19.33 -65.9,1.56 l -20.6,-19.59 -1.6,-1.59 c -18,-18.92 -17.3,-48.86 1.6,-66.9 18.9,-18.02 48.9,-17.31 66.9,1.6"
         style="fill:#3f3c3c;fill-opacity:1;fill-rule:nonzero;stroke:none"
         id="path69"
         inkscape:connector-curvature="0" /><path
         d="m 11957.2,3934.73 -20.5,-19.59 -1.3,-1.3 c -14.7,-15.41 -14.1,-39.81 1.3,-54.49 15.4,-14.7 39.8,-14.12 54.5,1.29 l 8.8,9.26 v 71.3 c -13.8,6.79 -31,4.79 -42.8,-6.47"
         style="fill:#3f3c3c;fill-opacity:1;fill-rule:nonzero;stroke:none"
         id="path71"
         inkscape:connector-curvature="0" /><path
         d="M 9269.9,0 12000,2757.75 v 28.49 L 9185.54,0 h 84.36"
         style="fill:#3f3c3c;fill-opacity:1;fill-rule:nonzero;stroke:none"
         id="path73"
         inkscape:connector-curvature="0" /><path
         d="M 10620.6,140.602 12000,1520 v 200.3 L 10520.5,240.801 10620.6,140.602"
         style="fill:#3f3c3c;fill-opacity:1;fill-rule:nonzero;stroke:none"
         id="path75"
         inkscape:connector-curvature="0" /><path
         d="m 11436.3,0 h 191.8 l 371.9,368.602 v 199.3 L 11951,519.398 11436.3,0"
         style="fill:#3f3c3c;fill-opacity:1;fill-rule:nonzero;stroke:none"
         id="path77"
         inkscape:connector-curvature="0" /><path
         d="M 10.7734,3933.46 C 7.58594,3936.79 3.90625,3939.29 0,3941.2 v -71.3 l 10.7617,11.29 c 13.8281,14.53 14.0039,37.59 0.0117,52.27"
         style="fill:#3f3c3c;fill-opacity:1;fill-rule:nonzero;stroke:none"
         id="path79"
         inkscape:connector-curvature="0" /><path
         d="m 225.613,4188.26 -20.679,-19.46 -1.204,-1.21 c -10.695,-11.35 -10.144,-29.22 1.204,-39.9 11.355,-10.69 29.214,-10.15 39.91,1.2 l 19.465,20.68 c 9.8,10.47 9.961,26.94 0,37.52 -10.364,11.02 -27.688,11.54 -38.696,1.17"
         style="fill:#3f3c3c;fill-opacity:1;fill-rule:nonzero;stroke:none"
         id="path81"
         inkscape:connector-curvature="0" /><path
         d="m 495.398,4440.41 -20.808,-19.34 -0.828,-0.83 c -5.989,-6.44 -5.617,-16.53 0.828,-22.53 6.445,-5.98 16.531,-5.61 22.519,0.83 l 19.336,20.82 c 5.243,5.66 5.34,14.54 0,20.28 -5.593,6.02 -15.019,6.37 -21.047,0.77"
         style="fill:#3f3c3c;fill-opacity:1;fill-rule:nonzero;stroke:none"
         id="path83"
         inkscape:connector-curvature="0" /><path
         d="m 746.328,4671.17 0.039,-0.88 0.891,0.03 9.566,10.46 -10.457,-9.57 -0.039,-0.04"
         style="fill:#3f3c3c;fill-opacity:1;fill-rule:nonzero;stroke:none"
         id="path85"
         inkscape:connector-curvature="0" /><path
         d="m 0,2786.24 v -28.49 l 1412.89,1427.2 z"
         style="fill:#3f3c3c;fill-opacity:1;fill-rule:nonzero;stroke:none"
         id="path87"
         inkscape:connector-curvature="0" /><path
         d="M 2539.63,4259.94 0,1720.3 V 1520 l 2639.78,2639.79 -100.15,100.15"
         style="fill:#3f3c3c;fill-opacity:1;fill-rule:nonzero;stroke:none"
         id="path89"
         inkscape:connector-curvature="0" /><path
         d="m 669.387,1042.8 c 204.176,209.8 410.253,417.6 612.563,629.3 406.59,421.24 809.63,846.06 1202.72,1280.85 C 2049.89,2559.85 1625.07,2156.82 1203.8,1750.2 992.18,1547.9 784.316,1341.8 574.563,1137.7 L 0,567.902 v -199.3 L 51.1133,419.301 669.387,1042.8"
         style="fill:#3f3c3c;fill-opacity:1;fill-rule:nonzero;stroke:none"
         id="path91"
         inkscape:connector-curvature="0" /><path
         d="M 2703.44,2119.95 621.23,0 h 125.918 l 2056.422,2019.8 -100.13,100.15"
         style="fill:#3f3c3c;fill-opacity:1;fill-rule:nonzero;stroke:none"
         id="path93"
         inkscape:connector-curvature="0" /><path
         d="M 3606.52,1831.1 1775.42,0 h 120.18 l 1771.02,1771 -60.1,60.1"
         style="fill:#3f3c3c;fill-opacity:1;fill-rule:nonzero;stroke:none"
         id="path95"
         inkscape:connector-curvature="0" /><path
         d="m 3092.97,205.699 -19.5,-19.5 c -26.42,-26.398 -25.41,-70.199 2.24,-97.8982 27.66,-27.6992 71.49,-28.6992 97.9,-2.1992 l 19.51,19.5004 c 26.41,26.398 25.4,70.199 -2.26,97.796 -27.66,27.704 -71.48,28.704 -97.89,2.301"
         style="fill:#3f3c3c;fill-opacity:1;fill-rule:nonzero;stroke:none"
         id="path97"
         inkscape:connector-curvature="0" /><path
         d="m 4207.11,1119.6 c 26.41,26.4 25.4,70.2 -2.26,97.8 -27.65,27.7 -71.47,28.7 -97.89,2.3 l -19.5,-19.5 c -26.42,-26.4 -25.41,-70.2 2.25,-97.9 27.65,-27.7 71.48,-28.7 97.89,-2.3 l 19.51,19.6"
         style="fill:#3f3c3c;fill-opacity:1;fill-rule:nonzero;stroke:none"
         id="path99"
         inkscape:connector-curvature="0" /><path
         d="m 3346.46,459.199 -19.51,-19.5 c -26.4,-26.398 -25.4,-70.199 2.26,-97.898 27.66,-27.699 71.48,-28.699 97.89,-2.199 l 19.5,19.5 c 26.42,26.398 25.41,70.199 -2.24,97.796 -27.66,27.704 -71.49,28.704 -97.9,2.301"
         style="fill:#3f3c3c;fill-opacity:1;fill-rule:nonzero;stroke:none"
         id="path101"
         inkscape:connector-curvature="0" /><path
         d="m 3853.45,966.199 -19.49,-19.5 c -26.41,-26.398 -25.41,-70.199 2.25,-97.898 27.66,-27.602 71.49,-28.699 97.9,-2.199 L 3953.59,866 c 26.42,26.5 25.41,70.301 -2.24,97.902 -27.67,27.7 -71.49,28.7 -97.9,2.297"
         style="fill:#3f3c3c;fill-opacity:1;fill-rule:nonzero;stroke:none"
         id="path103"
         inkscape:connector-curvature="0" /><path
         d="m 3599.95,712.699 -19.5,-19.5 c -26.41,-26.398 -25.4,-70.297 2.26,-97.898 27.65,-27.699 71.47,-28.699 97.89,-2.301 l 19.5,19.5 c 26.41,26.5 25.41,70.301 -2.25,97.902 -27.65,27.7 -71.48,28.7 -97.9,2.297"
         style="fill:#3f3c3c;fill-opacity:1;fill-rule:nonzero;stroke:none"
         id="path105"
         inkscape:connector-curvature="0" /><path
         d="m 4360.45,1473.2 -19.49,-19.5 c -26.42,-26.4 -25.41,-70.3 2.24,-97.9 27.66,-27.7 71.49,-28.7 97.89,-2.3 l 19.51,19.5 c 26.41,26.5 25.41,70.3 -2.25,97.9 -27.66,27.7 -71.48,28.7 -97.9,2.3"
         style="fill:#3f3c3c;fill-opacity:1;fill-rule:nonzero;stroke:none"
         id="path107"
         inkscape:connector-curvature="0" /><path
         d="m 4604.01,1716.7 -9.57,-9.5 c -26.41,-26.4 -25.4,-70.3 2.26,-97.9 27.66,-27.7 71.47,-28.7 97.89,-2.3 l 9.57,9.6 c 26.41,26.4 25.4,70.2 -2.26,97.9 -27.65,27.6 -71.47,28.7 -97.89,2.2"
         style="fill:#3f3c3c;fill-opacity:1;fill-rule:nonzero;stroke:none"
         id="path109"
         inkscape:connector-curvature="0" /><path
         d="M 4187.6,48.3008 4138.27,0 h 2.06 z"
         style="fill:#3f3c3c;fill-opacity:1;fill-rule:nonzero;stroke:none"
         id="path111"
         inkscape:connector-curvature="0" /><path
         d="m 1286.25,5211.09 -9.57,-10.46 10.45,9.58 0.04,0.04 -0.04,0.88 -0.88,-0.04"
         style="fill:#3f3c3c;fill-opacity:1;fill-rule:nonzero;stroke:none"
         id="path113"
         inkscape:connector-curvature="0" /><path
         d="m 1538.05,5441.06 20.8,19.35 0.82,0.82 c 5.96,6.41 5.59,16.44 -0.82,22.39 -6.41,5.96 -16.44,5.6 -22.39,-0.81 L 1517.11,5462 c -5.22,-5.63 -5.31,-14.46 0,-20.16 5.58,-6 14.94,-6.34 20.94,-0.78"
         style="fill:#3f3c3c;fill-opacity:1;fill-rule:nonzero;stroke:none"
         id="path115"
         inkscape:connector-curvature="0" /><path
         d="m 1807.78,5693.25 20.69,19.46 1.19,1.21 c 10.63,11.29 10.1,29.07 -1.19,39.69 -11.3,10.64 -29.08,10.11 -39.7,-1.19 l -19.47,-20.67 c -9.77,-10.41 -9.92,-26.81 0,-37.35 10.3,-10.94 27.54,-11.46 38.48,-1.15"
         style="fill:#3f3c3c;fill-opacity:1;fill-rule:nonzero;stroke:none"
         id="path117"
         inkscape:connector-curvature="0" /><path
         d="m 2076.15,5946.81 20.55,19.6 1.28,1.29 c 14.63,15.33 14.05,39.61 -1.28,54.24 -15.33,14.62 -39.62,14.06 -54.25,-1.28 l -19.6,-20.55 c -13.77,-14.48 -13.94,-37.43 0,-52.04 14.38,-15.07 38.23,-15.63 53.3,-1.26"
         style="fill:#3f3c3c;fill-opacity:1;fill-rule:nonzero;stroke:none"
         id="path119"
         inkscape:connector-curvature="0" /><path
         d="m 2343.27,6201.61 20.55,19.6 1.57,1.57 c 17.95,18.82 17.25,48.63 -1.56,66.57 -18.83,17.95 -48.62,17.24 -66.58,-1.57 l -19.59,-20.54 c -16.96,-17.83 -17.17,-46.09 0,-64.08 17.69,-18.55 47.07,-19.24 65.61,-1.55"
         style="fill:#3f3c3c;fill-opacity:1;fill-rule:nonzero;stroke:none"
         id="path121"
         inkscape:connector-curvature="0" /><path
         d="m 2609.07,6457.73 20.41,19.74 1.29,1.3 c 20.63,21.33 20.05,55.34 -1.29,75.97 -21.34,20.61 -55.35,20.04 -75.96,-1.3 l -19.74,-20.41 c -19.81,-20.55 -19.99,-53.32 0,-74.01 20.44,-21.15 54.14,-21.72 75.29,-1.29"
         style="fill:#3f3c3c;fill-opacity:1;fill-rule:nonzero;stroke:none"
         id="path123"
         inkscape:connector-curvature="0" /><path
         d="m 3925.8,7750.62 20.14,20.01 0.34,0.35 c 27.31,27.5 27.16,71.94 -0.34,99.25 -27.5,27.33 -71.95,27.17 -99.27,-0.33 l -20,-20.14 c -27.11,-27.32 -27.16,-71.45 0,-98.79 27.29,-27.47 71.66,-27.62 99.13,-0.35"
         style="fill:#3f3c3c;fill-opacity:1;fill-rule:nonzero;stroke:none"
         id="path133"
         inkscape:connector-curvature="0" /><path
         d="m 4186.88,8011.46 20.01,20.14 c 27.13,27.35 27.19,71.52 0,98.91 -27.31,27.5 -71.74,27.64 -99.24,0.33 l -20.14,-20 -0.34,-0.34 c -27.36,-27.53 -27.2,-72.02 0.33,-99.38 27.54,-27.35 72.03,-27.19 99.38,0.34"
         style="fill:#3f3c3c;fill-opacity:1;fill-rule:nonzero;stroke:none"
         id="path135"
         inkscape:connector-curvature="0" /><path
         d="m 4446.95,8273.32 20,20.14 c 26.65,26.85 26.7,70.24 0,97.13 -26.81,26.99 -70.45,27.14 -97.44,0.33 l -20.14,-20.01 -0.35,-0.34 c -26.85,-27.03 -26.7,-70.73 0.34,-97.58 27.05,-26.86 70.74,-26.71 97.59,0.33"
         style="fill:#3f3c3c;fill-opacity:1;fill-rule:nonzero;stroke:none"
         id="path137"
         inkscape:connector-curvature="0" /><path
         d="m 4706.97,8535.22 19.87,20.29 c 25.55,26.12 25.7,68.06 0,94.3 -26.04,26.59 -68.71,27.03 -95.3,0.99 l -20.27,-19.87 -1,-0.99 c -26.15,-26.7 -25.71,-69.55 0.99,-95.7 26.71,-26.16 69.56,-25.71 95.71,0.98"
         style="fill:#3f3c3c;fill-opacity:1;fill-rule:nonzero;stroke:none"
         id="path139"
         inkscape:connector-curvature="0" /><path
         d="m 4965.23,8798.88 19.87,20.28 c 24.11,24.65 24.25,64.22 0,88.97 -24.56,25.08 -64.81,25.49 -89.89,0.93 l -20.29,-19.87 -0.93,-0.93 c -24.68,-25.19 -24.26,-65.63 0.93,-90.31 25.2,-24.69 65.63,-24.26 90.31,0.93"
         style="fill:#3f3c3c;fill-opacity:1;fill-rule:nonzero;stroke:none"
         id="path141"
         inkscape:connector-curvature="0" /><path
         d="m 5223.5,9062.54 19.87,20.28 c 22.66,23.17 22.78,60.36 0,83.63 -23.1,23.57 -60.93,23.97 -84.5,0.87 l -20.29,-19.86 -0.87,-0.88 c -23.21,-23.69 -22.82,-61.72 0.87,-84.92 23.7,-23.2 61.71,-22.81 84.92,0.88"
         style="fill:#3f3c3c;fill-opacity:1;fill-rule:nonzero;stroke:none"
         id="path143"
         inkscape:connector-curvature="0" /><path
         d="m 5480.14,9327.83 19.72,20.42 c 19.89,20.62 20.06,53.52 0,74.28 -20.5,21.22 -54.34,21.81 -75.56,1.29 l -20.42,-19.73 -1.31,-1.31 c -20.7,-21.41 -20.12,-55.55 1.31,-76.26 21.41,-20.69 55.55,-20.1 76.26,1.31"
         style="fill:#3f3c3c;fill-opacity:1;fill-rule:nonzero;stroke:none"
         id="path145"
         inkscape:connector-curvature="0" /><path
         d="m 5736.41,9593.48 19.6,20.55 c 17.02,17.9 17.23,46.29 0,64.37 -17.78,18.64 -47.3,19.33 -65.94,1.56 l -20.55,-19.59 -1.59,-1.59 c -18.03,-18.92 -17.32,-48.86 1.59,-66.9 18.91,-18.02 48.86,-17.31 66.89,1.6"
         style="fill:#3f3c3c;fill-opacity:1;fill-rule:nonzero;stroke:none"
         id="path147"
         inkscape:connector-curvature="0" /><path
         d="m 5991.17,9860.64 19.59,20.55 c 13.83,14.53 14.01,37.59 0.01,52.27 -14.43,15.13 -38.41,15.7 -53.54,1.27 l -20.55,-19.59 -1.3,-1.3 c -14.68,-15.41 -14.11,-39.81 1.3,-54.49 15.41,-14.7 39.8,-14.12 54.49,1.29"
         style="fill:#3f3c3c;fill-opacity:1;fill-rule:nonzero;stroke:none"
         id="path149"
         inkscape:connector-curvature="0" /><path
         d="m 6244.84,10128.9 19.47,20.7 c 9.8,10.4 9.96,26.9 0,37.5 -10.36,11 -27.69,11.5 -38.69,1.2 l -20.68,-19.5 -1.21,-1.2 c -10.69,-11.4 -10.15,-29.2 1.2,-39.9 11.36,-10.7 29.23,-10.2 39.91,1.2"
         style="fill:#3f3c3c;fill-opacity:1;fill-rule:nonzero;stroke:none"
         id="path151"
         inkscape:connector-curvature="0" /><path
         d="m 6497.11,10398.5 19.34,20.9 c 5.24,5.6 5.34,14.5 0,20.2 -5.6,6.1 -15.02,6.4 -21.05,0.8 l -20.81,-19.3 -0.83,-0.9 c -5.99,-6.4 -5.62,-16.5 0.83,-22.5 6.45,-6 16.53,-5.6 22.52,0.8"
         style="fill:#3f3c3c;fill-opacity:1;fill-rule:nonzero;stroke:none"
         id="path153"
         inkscape:connector-curvature="0" /><path
         d="m 6747.26,10670.3 9.57,10.5 -10.46,-9.6 h -0.04 l 0.04,-0.9 h 0.89"
         style="fill:#3f3c3c;fill-opacity:1;fill-rule:nonzero;stroke:none"
         id="path155"
         inkscape:connector-curvature="0" /><path
         d="m 1421.99,4254.15 60.1,-60.09 5930.8,5990.84 -5990.9,-5930.75"
         style="fill:#3f3c3c;fill-opacity:1;fill-rule:nonzero;stroke:none"
         id="path157"
         inkscape:connector-curvature="0" /><path
         d="m 4620.63,6140.65 4019.15,4019.15 -100.15,100.1 -4019.14,-4019.1 100.14,-100.15"
         style="fill:#3f3c3c;fill-opacity:1;fill-rule:nonzero;stroke:none"
         id="path159"
         inkscape:connector-curvature="0" /><path
         d="m 4798.2,5188.61 c 211.58,202.37 419.57,408.3 629.25,612.55 l 623.66,618.15 618.27,623.52 c 204.18,209.76 410.26,417.62 612.57,629.24 406.59,421.27 809.63,846.09 1202.72,1280.88 -434.78,-393.1 -859.6,-796.13 -1280.87,-1202.74 -211.62,-202.3 -419.48,-408.37 -629.25,-612.55 l -623.51,-618.28 -618.15,-623.66 c -204.25,-209.68 -410.18,-417.67 -612.55,-629.24 -406.57,-421.3 -809.66,-846.09 -1202.87,-1280.74 434.66,393.21 859.43,796.3 1280.73,1202.87"
         style="fill:#3f3c3c;fill-opacity:1;fill-rule:nonzero;stroke:none"
         id="path165"
         inkscape:connector-curvature="0" /><path
         d="M 8703.44,8119.95 3179.88,2496.26 8803.57,8019.81 8703.44,8119.95"
         style="fill:#3f3c3c;fill-opacity:1;fill-rule:nonzero;stroke:none"
         id="path167"
         inkscape:connector-curvature="0" /><path
         d="m 4987.61,3092.01 4679.01,4679.01 -60.1,60.08 -4679,-4679 60.09,-60.09"
         style="fill:#3f3c3c;fill-opacity:1;fill-rule:nonzero;stroke:none"
         id="path169"
         inkscape:connector-curvature="0" /><path
         d="m 5290.47,2403.2 -9.57,-9.57 c -26.41,-26.4 -25.4,-70.23 2.25,-97.89 27.66,-27.65 71.49,-28.66 97.9,-2.24 l 9.57,9.56 c 26.41,26.41 25.4,70.23 -2.26,97.9 -27.66,27.65 -71.48,28.66 -97.89,2.24"
         style="fill:#3f3c3c;fill-opacity:1;fill-rule:nonzero;stroke:none"
         id="path171"
         inkscape:connector-curvature="0" /><path
         d="m 10441.1,7353.54 19.5,19.51 c 26.4,26.4 25.4,70.23 -2.3,97.89 -27.6,27.65 -71.4,28.66 -97.9,2.24 l -19.4,-19.49 c -26.5,-26.41 -25.5,-70.24 2.2,-97.9 27.7,-27.66 71.5,-28.66 97.9,-2.25"
         style="fill:#3f3c3c;fill-opacity:1;fill-rule:nonzero;stroke:none"
         id="path183"
         inkscape:connector-curvature="0" /><path
         d="m 5878.12,2790.57 19.5,19.49 c 26.41,26.41 25.41,70.24 -2.25,97.9 -27.66,27.66 -71.48,28.66 -97.9,2.25 l -19.5,-19.51 c -26.41,-26.4 -25.4,-70.23 2.25,-97.89 27.66,-27.65 71.48,-28.66 97.9,-2.24"
         style="fill:#3f3c3c;fill-opacity:1;fill-rule:nonzero;stroke:none"
         id="path195"
         inkscape:connector-curvature="0" /><path
         d="m 6131.63,3044.07 19.48,19.48 c 26.42,26.42 25.41,70.24 -2.24,97.91 -27.66,27.65 -71.49,28.66 -97.9,2.24 l -19.49,-19.48 c -26.41,-26.42 -25.41,-70.24 2.25,-97.89 27.66,-27.66 71.48,-28.67 97.9,-2.26"
         style="fill:#3f3c3c;fill-opacity:1;fill-rule:nonzero;stroke:none"
         id="path197"
         inkscape:connector-curvature="0" /><path
         d="m 6892.11,3804.55 19.5,19.5 c 26.42,26.42 25.41,70.25 -2.24,97.9 -27.66,27.66 -71.49,28.67 -97.91,2.25 l -19.5,-19.5 c -26.41,-26.42 -25.4,-70.24 2.26,-97.89 27.66,-27.66 71.47,-28.67 97.89,-2.26"
         style="fill:#3f3c3c;fill-opacity:1;fill-rule:nonzero;stroke:none"
         id="path199"
         inkscape:connector-curvature="0" /><path
         d="m 6385.13,3297.57 19.5,19.5 c 26.41,26.42 25.4,70.23 -2.26,97.89 -27.65,27.66 -71.47,28.67 -97.89,2.26 l -19.5,-19.51 c -26.42,-26.41 -25.41,-70.23 2.25,-97.9 27.65,-27.65 71.48,-28.66 97.9,-2.24"
         style="fill:#3f3c3c;fill-opacity:1;fill-rule:nonzero;stroke:none"
         id="path203"
         inkscape:connector-curvature="0" /><path
         d="m 5624.63,2537.07 19.49,19.5 c 26.42,26.42 25.41,70.24 -2.24,97.89 -27.66,27.66 -71.49,28.66 -97.9,2.26 l -19.51,-19.51 c -26.4,-26.41 -25.4,-70.24 2.26,-97.89 27.65,-27.66 71.48,-28.67 97.9,-2.25"
         style="fill:#3f3c3c;fill-opacity:1;fill-rule:nonzero;stroke:none"
         id="path209"
         inkscape:connector-curvature="0" /><path
         d="m 6638.61,3551.06 19.52,19.51 c 26.4,26.4 25.4,70.23 -2.26,97.89 -27.66,27.65 -71.49,28.66 -97.9,2.24 l -19.49,-19.49 c -26.42,-26.42 -25.41,-70.24 2.24,-97.9 27.66,-27.66 71.49,-28.66 97.89,-2.25"
         style="fill:#3f3c3c;fill-opacity:1;fill-rule:nonzero;stroke:none"
         id="path211"
         inkscape:connector-curvature="0" /><path
         d="m 10694.6,7607.03 9.6,9.57 c 26.4,26.41 25.4,70.24 -2.3,97.89 -27.7,27.66 -71.5,28.66 -97.9,2.25 l -9.6,-9.56 c -26.4,-26.42 -25.4,-70.24 2.3,-97.89 27.7,-27.66 71.5,-28.67 97.9,-2.26"
         style="fill:#3f3c3c;fill-opacity:1;fill-rule:nonzero;stroke:none"
         id="path213"
         inkscape:connector-curvature="0" /><path
         d="m 5458.54,1419.4 100.13,-100.2 4628.93,4729.08 z"
         style="fill:#3f3c3c;fill-opacity:1;fill-rule:nonzero;stroke:none"
         id="path215"
         inkscape:connector-curvature="0" /><path
         d="m 7287.17,11210.2 -0.04,0.9 h -0.88 l -9.57,-10.5 10.45,9.6 h 0.04"
         style="fill:#3f3c3c;fill-opacity:1;fill-rule:nonzero;stroke:none"
         id="path217"
         inkscape:connector-curvature="0" /><path
         d="m 7538.05,11441.1 20.8,19.3 0.82,0.8 c 5.96,6.4 5.59,16.5 -0.82,22.4 -6.41,6 -16.44,5.6 -22.39,-0.8 l -19.35,-20.8 c -5.22,-5.6 -5.31,-14.5 0,-20.2 5.58,-6 14.94,-6.3 20.94,-0.7"
         style="fill:#3f3c3c;fill-opacity:1;fill-rule:nonzero;stroke:none"
         id="path219"
         inkscape:connector-curvature="0" /><path
         d="m 7807.78,11693.3 20.69,19.4 1.19,1.2 c 10.63,11.3 10.1,29.1 -1.19,39.7 -11.3,10.7 -29.08,10.1 -39.7,-1.2 l -19.47,-20.6 c -9.77,-10.5 -9.92,-26.9 0,-37.4 10.3,-10.9 27.54,-11.5 38.48,-1.1"
         style="fill:#3f3c3c;fill-opacity:1;fill-rule:nonzero;stroke:none"
         id="path221"
         inkscape:connector-curvature="0" /><path
         d="m 8022.85,11948.1 c 14.38,-15.1 38.23,-15.7 53.3,-1.3 l 20.55,19.6 1.28,1.3 c 8.54,9 11.75,20.9 10.01,32.3 h -85.23 c -13.66,-14.5 -13.81,-37.4 0.09,-51.9"
         style="fill:#3f3c3c;fill-opacity:1;fill-rule:nonzero;stroke:none"
         id="path223"
         inkscape:connector-curvature="0" /><path
         d="M 7482.09,10194.1 9269.9,12000 h -84.36 l -1763.55,-1745.8 60.1,-60.1"
         style="fill:#3f3c3c;fill-opacity:1;fill-rule:nonzero;stroke:none"
         id="path225"
         inkscape:connector-curvature="0" /><path
         d="m 10087.6,11607.7 -100.11,100.1 -435.08,-435.1 100.15,-100.1 435.04,435.1"
         style="fill:#3f3c3c;fill-opacity:1;fill-rule:nonzero;stroke:none"
         id="path227"
         inkscape:connector-curvature="0" /><path
         d="m 9442.98,10963 -100.15,100.1 -143.66,-143.6 100.15,-100.2 143.66,143.7"
         style="fill:#3f3c3c;fill-opacity:1;fill-rule:nonzero;stroke:none"
         id="path229"
         inkscape:connector-curvature="0" /><path
         d="m 10720.3,11266.5 c -406.5,-421.3 -809.62,-846.1 -1202.83,-1280.76 434.66,393.26 859.43,796.26 1280.73,1202.86 211.6,202.4 419.6,408.3 629.3,612.6 l 200.6,198.8 h -191.8 l -103.4,-104.3 c -204.3,-209.7 -410.2,-417.7 -612.6,-629.2"
         style="fill:#3f3c3c;fill-opacity:1;fill-rule:nonzero;stroke:none"
         id="path231"
         inkscape:connector-curvature="0" /><path
         d="m 12000,11266.2 v 101.3 L 9179.88,8496.26 Z"
         style="fill:#3f3c3c;fill-opacity:1;fill-rule:nonzero;stroke:none"
         id="path233"
         inkscape:connector-curvature="0" /><path
         d="M 10987.6,9092.01 12000,10104.4 v 120.2 l -1072.5,-1072.5 60.1,-60.09"
         style="fill:#3f3c3c;fill-opacity:1;fill-rule:nonzero;stroke:none"
         id="path235"
         inkscape:connector-curvature="0" /><path
         d="m 11381.1,8293.5 9.5,9.56 c 26.4,26.41 25.4,70.23 -2.2,97.9 -27.7,27.65 -71.5,28.66 -97.9,2.24 l -9.6,-9.57 c -26.4,-26.4 -25.4,-70.23 2.3,-97.89 27.6,-27.65 71.4,-28.66 97.9,-2.24"
         style="fill:#3f3c3c;fill-opacity:1;fill-rule:nonzero;stroke:none"
         id="path237"
         inkscape:connector-curvature="0" /><path
         d="m 11878.1,8790.57 19.5,19.49 c 26.4,26.41 25.4,70.24 -2.2,97.9 -27.7,27.66 -71.5,28.66 -97.9,2.25 l -19.5,-19.51 c -26.4,-26.4 -25.4,-70.23 2.2,-97.89 27.7,-27.65 71.5,-28.66 97.9,-2.24"
         style="fill:#3f3c3c;fill-opacity:1;fill-rule:nonzero;stroke:none"
         id="path239"
         inkscape:connector-curvature="0" /><path
         d="m 11624.6,8537.07 19.5,19.5 c 26.4,26.42 25.4,70.24 -2.2,97.89 -27.7,27.66 -71.5,28.66 -97.9,2.26 l -19.5,-19.51 c -26.4,-26.41 -25.4,-70.24 2.2,-97.89 27.7,-27.66 71.5,-28.67 97.9,-2.25"
         style="fill:#3f3c3c;fill-opacity:1;fill-rule:nonzero;stroke:none"
         id="path241"
         inkscape:connector-curvature="0" /><path
         d="m 11558.7,7319.22 441.3,450.87 v 179.28 l -541.5,-530.01 100.2,-100.14"
         style="fill:#3f3c3c;fill-opacity:1;fill-rule:nonzero;stroke:none"
         id="path243"
         inkscape:connector-curvature="0" /><path
         d="M 621.23,12000 0,11367.5 v -101.3 L 747.148,12000 H 621.23"
         style="fill:#3f3c3c;fill-opacity:1;fill-rule:nonzero;stroke:none"
         id="path245"
         inkscape:connector-curvature="0" /><path
         d="M 1775.42,12000 0,10224.6 v -120.2 L 1895.6,12000 h -120.18"
         style="fill:#3f3c3c;fill-opacity:1;fill-rule:nonzero;stroke:none"
         id="path247"
         inkscape:connector-curvature="0" /><path
         d="m 50.9688,9163.7 -19.4844,-19.48 c -26.41409,-26.42 -25.41018,-70.24 2.2461,-97.89 27.6679,-27.66 71.4845,-28.67 97.9025,-2.26 l 19.48,19.48 c 26.414,26.42 25.41,70.24 -2.246,97.91 -27.668,27.65 -71.4842,28.66 -97.8982,2.24"
         style="fill:#3f3c3c;fill-opacity:1;fill-rule:nonzero;stroke:none"
         id="path249"
         inkscape:connector-curvature="0" /><path
         d="m 304.48,9417.22 -19.5,-19.51 c -26.417,-26.41 -25.41,-70.23 2.247,-97.9 27.656,-27.65 71.484,-28.66 97.902,-2.24 l 19.5,19.5 c 26.406,26.42 25.398,70.23 -2.258,97.89 -27.652,27.66 -71.473,28.67 -97.891,2.26"
         style="fill:#3f3c3c;fill-opacity:1;fill-rule:nonzero;stroke:none"
         id="path251"
         inkscape:connector-curvature="0" /><path
         d="m 811.465,9924.2 -19.5,-19.5 c -26.418,-26.42 -25.402,-70.24 2.254,-97.89 27.656,-27.66 71.472,-28.67 97.89,-2.26 l 19.5,19.5 c 26.418,26.42 25.411,70.25 -2.246,97.9 -27.652,27.66 -71.48,28.67 -97.898,2.25"
         style="fill:#3f3c3c;fill-opacity:1;fill-rule:nonzero;stroke:none"
         id="path253"
         inkscape:connector-curvature="0" /><path
         d="m 1571.97,10684.7 -19.51,-19.5 c -26.41,-26.4 -25.4,-70.2 2.26,-97.9 27.65,-27.6 71.47,-28.7 97.89,-2.2 l 19.5,19.5 c 26.42,26.4 25.41,70.2 -2.25,97.8 -27.65,27.7 -71.48,28.7 -97.89,2.3"
         style="fill:#3f3c3c;fill-opacity:1;fill-rule:nonzero;stroke:none"
         id="path255"
         inkscape:connector-curvature="0" /><path
         d="m 1825.46,10938.2 -19.5,-19.5 c -26.42,-26.4 -25.41,-70.2 2.25,-97.9 27.66,-27.7 71.48,-28.7 97.89,-2.3 l 19.51,19.6 c 26.41,26.4 25.41,70.2 -2.25,97.8 -27.66,27.7 -71.48,28.7 -97.9,2.3"
         style="fill:#3f3c3c;fill-opacity:1;fill-rule:nonzero;stroke:none"
         id="path257"
         inkscape:connector-curvature="0" /><path
         d="m 1318.48,10431.2 -19.51,-19.5 c -26.41,-26.4 -25.41,-70.2 2.25,-97.9 27.66,-27.6 71.49,-28.6 97.9,-2.2 l 19.49,19.5 c 26.42,26.4 25.41,70.2 -2.24,97.9 -27.66,27.6 -71.49,28.6 -97.89,2.2"
         style="fill:#3f3c3c;fill-opacity:1;fill-rule:nonzero;stroke:none"
         id="path259"
         inkscape:connector-curvature="0" /><path
         d="m 1064.96,10177.7 -19.48,-19.5 c -26.42,-26.4 -25.41,-70.2 2.24,-97.9 27.67,-27.6 71.49,-28.6 97.91,-2.2 l 19.48,19.5 c 26.41,26.4 25.4,70.2 -2.26,97.8 -27.65,27.7 -71.47,28.7 -97.89,2.3"
         style="fill:#3f3c3c;fill-opacity:1;fill-rule:nonzero;stroke:none"
         id="path261"
         inkscape:connector-curvature="0" /><path
         d="m 557.98,9670.7 -19.503,-19.49 c -26.414,-26.42 -25.411,-70.24 2.246,-97.9 27.656,-27.66 71.484,-28.66 97.89,-2.25 l 19.5,19.51 c 26.418,26.4 25.41,70.23 -2.246,97.89 -27.652,27.65 -71.48,28.66 -97.887,2.24"
         style="fill:#3f3c3c;fill-opacity:1;fill-rule:nonzero;stroke:none"
         id="path263"
         inkscape:connector-curvature="0" /><path
         d="m 2332.47,11445.2 -19.5,-19.5 c -26.42,-26.4 -25.41,-70.2 2.24,-97.9 27.66,-27.7 71.49,-28.7 97.9,-2.2 l 19.51,19.5 c 26.4,26.4 25.4,70.2 -2.26,97.8 -27.65,27.7 -71.47,28.7 -97.89,2.3"
         style="fill:#3f3c3c;fill-opacity:1;fill-rule:nonzero;stroke:none"
         id="path265"
         inkscape:connector-curvature="0" /><path
         d="m 2937.34,11949.9 c -27.65,27.7 -71.47,28.7 -97.89,2.3 l -19.5,-19.5 c -26.41,-26.4 -25.4,-70.2 2.26,-97.9 27.65,-27.7 71.47,-28.7 97.89,-2.3 l 19.5,19.5 c 26.42,26.5 25.41,70.3 -2.26,97.9"
         style="fill:#3f3c3c;fill-opacity:1;fill-rule:nonzero;stroke:none"
         id="path267"
         inkscape:connector-curvature="0" /><path
         d="m 2078.97,11191.7 -19.5,-19.5 c -26.41,-26.4 -25.41,-70.2 2.25,-97.9 27.66,-27.6 71.48,-28.7 97.9,-2.2 l 19.5,19.5 c 26.41,26.4 25.41,70.2 -2.25,97.9 -27.66,27.6 -71.48,28.6 -97.9,2.2"
         style="fill:#3f3c3c;fill-opacity:1;fill-rule:nonzero;stroke:none"
         id="path269"
         inkscape:connector-curvature="0" /><path
         d="m 2585.96,11698.7 -19.5,-19.5 c -26.42,-26.4 -25.41,-70.2 2.25,-97.9 27.66,-27.7 71.49,-28.7 97.89,-2.3 l 19.5,19.6 c 26.42,26.4 25.41,70.2 -2.24,97.8 -27.66,27.7 -71.49,28.7 -97.9,2.3"
         style="fill:#3f3c3c;fill-opacity:1;fill-rule:nonzero;stroke:none"
         id="path271"
         inkscape:connector-curvature="0" /><path
         d="M 4138.27,12000 0,7949.37 V 7770.09 L 4140.33,12000 h -2.06"
         style="fill:#3f3c3c;fill-opacity:1;fill-rule:nonzero;stroke:none"
         id="path273"
         inkscape:connector-curvature="0" /></g></g></svg>