<?xml version="1.0" encoding="UTF-8" standalone="no"?>
<svg
   xmlns:dc="http://purl.org/dc/elements/1.1/"
   xmlns:cc="http://creativecommons.org/ns#"
   xmlns:rdf="http://www.w3.org/1999/02/22-rdf-syntax-ns#"
   xmlns:svg="http://www.w3.org/2000/svg"
   xmlns="http://www.w3.org/2000/svg"
   xmlns:sodipodi="http://sodipodi.sourceforge.net/DTD/sodipodi-0.dtd"
   xmlns:inkscape="http://www.inkscape.org/namespaces/inkscape"
   viewBox="0 0 431.84763 285.34082"
   height="285.34082"
   width="431.84763"
   xml:space="preserve"
   id="svg3732"
   version="1.1"
   sodipodi:docname="LOGO_1.svg"
   inkscape:version="0.92.3 (2405546, 2018-03-11)"><sodipodi:namedview
     pagecolor="#ffffff"
     bordercolor="#666666"
     borderopacity="1"
     objecttolerance="10"
     gridtolerance="10"
     guidetolerance="10"
     inkscape:pageopacity="0"
     inkscape:pageshadow="2"
     inkscape:window-width="1299"
     inkscape:window-height="713"
     id="namedview49"
     showgrid="false"
     inkscape:zoom="0.79799998"
     inkscape:cx="223.56326"
     inkscape:cy="122.81683"
     inkscape:window-x="67"
     inkscape:window-y="27"
     inkscape:window-maximized="1"
     inkscape:current-layer="g3740" /><metadata
     id="metadata3738"><rdf:RDF><cc:Work
         rdf:about=""><dc:format>image/svg+xml</dc:format><dc:type
           rdf:resource="http://purl.org/dc/dcmitype/StillImage" /><dc:title /></cc:Work></rdf:RDF></metadata><defs
     id="defs3736"><clipPath
       id="clipPath3752"
       clipPathUnits="userSpaceOnUse"><path
         id="path3750"
         d="m 293.464,371.093 c -1.501,-2.892 4.589,-9.343 6.946,-8.688 v 0 c 0.259,0.072 0.542,0.311 0.775,0.445 v 0 c 2.939,-3.145 3.636,-3.892 6.709,-7.438 v 0 c 1.458,-1.82 3.898,-4.866 8.586,-20.054 v 0 c -2.535,3.388 -2.992,3.999 -5.606,7.2 v 0 c -1.59,9.054 -6.609,13.146 -8.942,9.201 v 0 c -2.974,-5.028 2.472,-17.29 7.02,-15.81 v 0 c 0.821,0.268 1.257,1.068 1.576,1.652 v 0 c 3.86,-4.74 7.851,-9.639 11.489,-15.898 v 0 l 1.846,-3.105 c -1.219,7.377 -2.109,8.792 -4.821,13.06 v 0 c -1.915,6.214 -2.915,10.447 -6.255,17.946 v 0 c -3.344,7.065 -5.214,8.912 -11.472,15.605 v 0 c -1.328,3.931 -4.523,6.684 -6.489,6.684 v 0 c -0.595,0 -1.078,-0.252 -1.362,-0.8 m 2.997,-3.056 c -0.367,0.949 0.054,1.476 0.865,1.083 v 0 c 0.331,-0.16 0.578,-0.394 0.74,-0.549 v 0 c 0.986,-1.029 1.114,-1.943 0.963,-2.276 v 0 c -0.08,-0.176 -0.227,-0.255 -0.413,-0.255 v 0 c -0.639,0 -1.74,0.925 -2.155,1.997 m 9.263,-24.881 c -1.321,1.992 -1.194,5.056 0.199,4.822 v 0 c 0.413,-0.069 0.722,-0.397 0.927,-0.614 v 0 c 1.18,-1.446 1.422,-3.413 1.218,-4.347 v 0 c -0.141,-0.643 -0.472,-0.961 -0.883,-0.961 v 0 c -0.443,0 -0.977,0.37 -1.461,1.1 m -44.096,22.675 c -2.754,-1.807 -5.856,-7.687 2.13,-14.327 v 0 c 3.46,-2.2 6.674,-3.398 11.112,-2.096 v 0 c 36.301,-35.749 48.874,-54.091 48.611,-58.935 v 0 c 0,0 0.655,4.089 0.809,5.46 v 0 c 0,0.007 10e-4,0.013 0.002,0.02 v 0 c 0.146,1.344 -0.026,2.706 -0.461,3.986 v 0 l -0.121,0.359 c -3.996,9.773 -20.419,29.295 -44.856,53.2 v 0 c 2.072,8.175 -5.714,13.676 -12.27,13.677 v 0 c -1.828,0 -3.559,-0.428 -4.956,-1.344 m 4.215,-6.1 c 0.333,2.096 3.381,2.851 5.787,0.776 v 0 c 1.91,-1.936 1.278,-3.83 0.22,-4.556 v 0 c -0.504,-0.346 -1.089,-0.5 -1.692,-0.5 v 0 c -2.211,0 -4.666,2.066 -4.315,4.28 m -57.933,-7.729 c -10.15,-4.031 -11.479,-17.295 -2.187,-21.834 v 0 c 4.912,-2.401 9.268,-0.723 11.362,0.083 v 0 c 37.333,-37.088 59.587,-59.617 69.53,-69.745 v 0 c -3.256,-3.245 -7.676,-7.496 -11.115,-10.547 v 0 c -10.909,2.364 -21.216,-8.553 -18.016,-13.758 v 0 c 3.929,-6.399 19.944,-0.55 21.689,7.918 v 0 c 0.144,0.697 0.077,1.667 -0.008,2.373 v 0 c 8.235,7.384 8.907,7.987 13.734,13.426 v 0 c 6.237,6.841 15.544,9.357 22.123,15.719 v 0 c 1.469,-2.321 1.949,-3.206 2.491,-4.724 v 0 l 1.849,4.369 0.16,0.447 c 0.596,2.064 1.994,6.896 -37.693,48.207 v 0 c 2.823,13.155 -10.538,20.893 -18.145,16.264 v 0 c -8.778,-5.34 -4.085,-20.8 6.972,-22.975 v 0 c 3.171,-0.623 4.994,0.191 6.758,0.977 v 0 c 11.709,-12.115 24.641,-25.609 34.621,-38.465 v 0 c -3.843,-2.811 -5.228,-4.004 -8.868,-5.521 v 0 c -3.984,-1.804 -6.748,-3.751 -10.956,-7.715 v 0 c -24.919,26.225 -53.916,54.877 -68.982,69.622 v 0 c 4.205,10.042 -2.937,16.777 -10.591,16.777 v 0 c -1.587,0 -3.194,-0.289 -4.728,-0.898 m -0.324,-10.287 c 0.483,3.16 4.527,5.129 7.382,2.645 v 0 c 2.1,-2.268 0.936,-4.93 -0.562,-6.094 v 0 c -0.875,-0.681 -1.858,-0.984 -2.8,-0.984 v 0 c -2.331,0 -4.414,1.854 -4.02,4.433 m 59.647,-11.014 c 0.225,2.945 3.59,4.321 6.433,1.7 v 0 c 2.233,-2.436 1.6,-5.072 0.437,-6.165 v 0 c -0.628,-0.592 -1.385,-0.854 -2.162,-0.854 v 0 c -2.366,0 -4.929,2.42 -4.708,5.319 m -2.724,-90.088 c 0.519,2.395 5.009,4.659 7.125,3.009 v 0 c 1.307,-1.396 -0.271,-3.318 -1.81,-4.235 v 0 c -1.039,-0.621 -2.118,-0.908 -3.033,-0.908 v 0 c -1.51,0 -2.575,0.782 -2.282,2.134 m -83.663,70.537 c -8.604,-5.033 -5.947,-20.95 3.841,-23.017 v 0 c 2.729,-0.576 4.44,0.127 6.094,0.807 v 0 c 13.445,-14.099 28.587,-29.581 48.173,-47.252 v 0 c -0.706,-2.83 -1.767,-6.575 -2.71,-9.333 v 0 c -4.424,-13.201 11.731,-15.083 11.907,-15.065 v 0 l 2.409,0.395 4.432,0.901 c -1.318,0.016 -2.959,0.034 -9.788,4.71 v 0 c -2.754,2.277 -3.15,4.447 -1.566,8.601 v 0 c 2.464,6.464 5.012,13.148 6.338,33.057 v 0 c 11.398,3.913 11.89,18.803 0.775,23.431 v 0 c -11.091,4.617 -21.932,-5.456 -17.314,-16.086 v 0 c 1.488,-3.428 4.187,-5.878 8.022,-7.285 v 0 c -0.529,-9.808 -0.55,-10.192 -1.127,-14.952 v 0 c -13.581,12.743 -25.814,24.618 -44.808,44.414 v 0 c 3.032,10.443 -3.933,17.79 -10.502,17.79 v 0 c -1.449,0 -2.877,-0.357 -4.176,-1.116 m 1.023,-10.856 c 0.012,3.199 3.18,5.231 5.798,2.684 v 0 c 2.017,-2.377 1.298,-5.079 0.144,-6.239 v 0 c -0.648,-0.652 -1.407,-0.943 -2.161,-0.943 v 0 c -1.91,0 -3.791,1.87 -3.781,4.498 m 59.404,-22.918 c 0.628,3.111 4.702,4.675 7.671,2.01 v 0 c 2.277,-2.495 1.116,-5.223 -0.436,-6.363 v 0 c -0.843,-0.619 -1.78,-0.894 -2.695,-0.894 v 0 c -2.661,0 -5.132,2.325 -4.54,5.247 M 181.436,263.27 c -5.753,-1.863 -5.111,-11.28 2.692,-15.23 v 0 c 2.813,-1.423 5.056,-1.268 6.261,-1.185 v 0 c 25.114,-24.029 35.966,-29.85 40.647,-30.501 v 0 l 4.802,-0.063 2.223,0.055 c -10.012,1.092 -35.848,25.549 -43.529,33.018 v 0 c 3.19,6.87 -5.215,14.184 -11.212,14.185 v 0 c -0.664,0 -1.298,-0.089 -1.884,-0.279 m 1.536,-7.085 c 0.469,1.611 2.707,1.984 4.781,0.029 v 0 c 1.806,-1.969 1.238,-3.618 0.259,-4.16 v 0 c -0.365,-0.201 -0.764,-0.292 -1.175,-0.292 v 0 c -2.094,0 -4.465,2.362 -3.865,4.423 m 110.826,-10.894 c -0.358,-2.363 -11.515,-10.368 -16.55,-13.657 v 0 c -3.726,-2.368 -12.455,-7.915 -14.136,-10.368 v 0 c 0.065,-0.067 0.152,-0.156 0.218,-0.222 v 0 c 0.157,0.018 0.365,0.041 0.522,0.058 v 0 l 1.014,0.352 4.994,2.104 c 0.416,1.148 4.02,3.591 6.969,5.44 v 0 c 6.759,4.234 10.151,6.359 18.391,13.886 v 0 c 7.121,2.208 16.403,17.409 13.16,18.393 v 0 c -0.149,0.045 -0.31,0.067 -0.482,0.067 v 0 c -3.907,0.001 -13.377,-11.278 -14.1,-16.053 m 5.571,3.619 c -0.281,1.662 3.959,6.587 5.097,5.923 v 0 c 0.03,-0.017 0.062,-0.051 0.087,-0.073 v 0 c 0.463,-0.805 -1.016,-2.977 -2.058,-4.157 v 0 c -1.112,-1.259 -2.19,-2.021 -2.747,-2.021 v 0 c -0.206,0 -0.341,0.105 -0.379,0.328 M 185.801,232.868 c -0.043,-0.595 0.872,-1.272 1.607,-1.816 v 0 c 0.47,-0.304 1.102,-0.7 1.591,-0.97 v 0 c 1.758,-0.976 3.754,-1.393 5.515,-2.36 v 0 c 3.665,-2.016 6.798,-4.896 10.684,-6.55 v 0 c 0.379,-0.141 0.885,-0.328 1.271,-0.447 v 0 c 1.932,-0.599 4.318,-1.246 6.571,-1.81 v 0 c -3.034,0.866 -6.315,2.446 -13.643,7.898 v 0 c 3.995,0.307 1.384,2.621 0.821,3.081 v 0 c -3.156,2.579 -8.551,3.924 -11.771,3.924 v 0 c -1.552,0 -2.598,-0.312 -2.646,-0.95 m 8.469,-3.767 c -1.904,0.359 -4.371,1.685 -3.656,2.155 v 0 c 0.587,0.387 3.302,-0.125 4.834,-1.289 v 0 c 0.861,-0.756 0.21,-0.914 -0.109,-0.947 v 0 c -0.061,-0.006 -0.13,-0.009 -0.205,-0.009 v 0 c -0.243,0 -0.551,0.032 -0.864,0.09 m 21.417,-10.833 0.534,-0.113 c -0.978,0.22 -2.064,0.481 -3.181,0.76 v 0 c 0.873,-0.249 1.725,-0.443 2.647,-0.647"
         inkscape:connector-curvature="0" /></clipPath><linearGradient
       id="linearGradient3762"
       spreadMethod="pad"
       gradientTransform="matrix(99.964867,-99.964867,-99.964867,-99.964867,198.77879,344.51562)"
       gradientUnits="userSpaceOnUse"
       y2="0"
       x2="1"
       y1="0"
       x1="0"><stop
         id="stop3758"
         offset="0"
         style="stop-opacity:1;stop-color:#0fe2fe" /><stop
         id="stop3760"
         offset="1"
         style="stop-opacity:1;stop-color:#3527a6" /></linearGradient><clipPath
       id="clipPath3784"
       clipPathUnits="userSpaceOnUse"><path
         id="path3782"
         d="M 0,500 H 500 V 0 H 0 Z"
         inkscape:connector-curvature="0" /></clipPath></defs><g
     transform="matrix(1.3333333,0,0,-1.3333333,-109.77008,495.85732)"
     id="g3740"><g
       id="g3746"><g
         clip-path="url(#clipPath3752)"
         id="g3748"><g
           id="g3754"><g
             id="g3756"><path
               id="path3764"
               style="fill:url(#linearGradient3762);stroke:none"
               d="m 293.464,371.093 c -1.501,-2.892 4.589,-9.343 6.946,-8.688 v 0 c 0.259,0.072 0.542,0.311 0.775,0.445 v 0 c 2.939,-3.145 3.636,-3.892 6.709,-7.438 v 0 c 1.458,-1.82 3.898,-4.866 8.586,-20.054 v 0 c -2.535,3.388 -2.992,3.999 -5.606,7.2 v 0 c -1.59,9.054 -6.609,13.146 -8.942,9.201 v 0 c -2.974,-5.028 2.472,-17.29 7.02,-15.81 v 0 c 0.821,0.268 1.257,1.068 1.576,1.652 v 0 c 3.86,-4.74 7.851,-9.639 11.489,-15.898 v 0 l 1.846,-3.105 c -1.219,7.377 -2.109,8.792 -4.821,13.06 v 0 c -1.915,6.214 -2.915,10.447 -6.255,17.946 v 0 c -3.344,7.065 -5.214,8.912 -11.472,15.605 v 0 c -1.328,3.931 -4.523,6.684 -6.489,6.684 v 0 c -0.595,0 -1.078,-0.252 -1.362,-0.8 m 2.997,-3.056 c -0.367,0.949 0.054,1.476 0.865,1.083 v 0 c 0.331,-0.16 0.578,-0.394 0.74,-0.549 v 0 c 0.986,-1.029 1.114,-1.943 0.963,-2.276 v 0 c -0.08,-0.176 -0.227,-0.255 -0.413,-0.255 v 0 c -0.639,0 -1.74,0.925 -2.155,1.997 m 9.263,-24.881 c -1.321,1.992 -1.194,5.056 0.199,4.822 v 0 c 0.413,-0.069 0.722,-0.397 0.927,-0.614 v 0 c 1.18,-1.446 1.422,-3.413 1.218,-4.347 v 0 c -0.141,-0.643 -0.472,-0.961 -0.883,-0.961 v 0 c -0.443,0 -0.977,0.37 -1.461,1.1 m -44.096,22.675 c -2.754,-1.807 -5.856,-7.687 2.13,-14.327 v 0 c 3.46,-2.2 6.674,-3.398 11.112,-2.096 v 0 c 36.301,-35.749 48.874,-54.091 48.611,-58.935 v 0 c 0,0 0.655,4.089 0.809,5.46 v 0 c 0,0.007 10e-4,0.013 0.002,0.02 v 0 c 0.146,1.344 -0.026,2.706 -0.461,3.986 v 0 l -0.121,0.359 c -3.996,9.773 -20.419,29.295 -44.856,53.2 v 0 c 2.072,8.175 -5.714,13.676 -12.27,13.677 v 0 c -1.828,0 -3.559,-0.428 -4.956,-1.344 m 4.215,-6.1 c 0.333,2.096 3.381,2.851 5.787,0.776 v 0 c 1.91,-1.936 1.278,-3.83 0.22,-4.556 v 0 c -0.504,-0.346 -1.089,-0.5 -1.692,-0.5 v 0 c -2.211,0 -4.666,2.066 -4.315,4.28 m -57.933,-7.729 c -10.15,-4.031 -11.479,-17.295 -2.187,-21.834 v 0 c 4.912,-2.401 9.268,-0.723 11.362,0.083 v 0 c 37.333,-37.088 59.587,-59.617 69.53,-69.745 v 0 c -3.256,-3.245 -7.676,-7.496 -11.115,-10.547 v 0 c -10.909,2.364 -21.216,-8.553 -18.016,-13.758 v 0 c 3.929,-6.399 19.944,-0.55 21.689,7.918 v 0 c 0.144,0.697 0.077,1.667 -0.008,2.373 v 0 c 8.235,7.384 8.907,7.987 13.734,13.426 v 0 c 6.237,6.841 15.544,9.357 22.123,15.719 v 0 c 1.469,-2.321 1.949,-3.206 2.491,-4.724 v 0 l 1.849,4.369 0.16,0.447 c 0.596,2.064 1.994,6.896 -37.693,48.207 v 0 c 2.823,13.155 -10.538,20.893 -18.145,16.264 v 0 c -8.778,-5.34 -4.085,-20.8 6.972,-22.975 v 0 c 3.171,-0.623 4.994,0.191 6.758,0.977 v 0 c 11.709,-12.115 24.641,-25.609 34.621,-38.465 v 0 c -3.843,-2.811 -5.228,-4.004 -8.868,-5.521 v 0 c -3.984,-1.804 -6.748,-3.751 -10.956,-7.715 v 0 c -24.919,26.225 -53.916,54.877 -68.982,69.622 v 0 c 4.205,10.042 -2.937,16.777 -10.591,16.777 v 0 c -1.587,0 -3.194,-0.289 -4.728,-0.898 m -0.324,-10.287 c 0.483,3.16 4.527,5.129 7.382,2.645 v 0 c 2.1,-2.268 0.936,-4.93 -0.562,-6.094 v 0 c -0.875,-0.681 -1.858,-0.984 -2.8,-0.984 v 0 c -2.331,0 -4.414,1.854 -4.02,4.433 m 59.647,-11.014 c 0.225,2.945 3.59,4.321 6.433,1.7 v 0 c 2.233,-2.436 1.6,-5.072 0.437,-6.165 v 0 c -0.628,-0.592 -1.385,-0.854 -2.162,-0.854 v 0 c -2.366,0 -4.929,2.42 -4.708,5.319 m -2.724,-90.088 c 0.519,2.395 5.009,4.659 7.125,3.009 v 0 c 1.307,-1.396 -0.271,-3.318 -1.81,-4.235 v 0 c -1.039,-0.621 -2.118,-0.908 -3.033,-0.908 v 0 c -1.51,0 -2.575,0.782 -2.282,2.134 m -83.663,70.537 c -8.604,-5.033 -5.947,-20.95 3.841,-23.017 v 0 c 2.729,-0.576 4.44,0.127 6.094,0.807 v 0 c 13.445,-14.099 28.587,-29.581 48.173,-47.252 v 0 c -0.706,-2.83 -1.767,-6.575 -2.71,-9.333 v 0 c -4.424,-13.201 11.731,-15.083 11.907,-15.065 v 0 l 2.409,0.395 4.432,0.901 c -1.318,0.016 -2.959,0.034 -9.788,4.71 v 0 c -2.754,2.277 -3.15,4.447 -1.566,8.601 v 0 c 2.464,6.464 5.012,13.148 6.338,33.057 v 0 c 11.398,3.913 11.89,18.803 0.775,23.431 v 0 c -11.091,4.617 -21.932,-5.456 -17.314,-16.086 v 0 c 1.488,-3.428 4.187,-5.878 8.022,-7.285 v 0 c -0.529,-9.808 -0.55,-10.192 -1.127,-14.952 v 0 c -13.581,12.743 -25.814,24.618 -44.808,44.414 v 0 c 3.032,10.443 -3.933,17.79 -10.502,17.79 v 0 c -1.449,0 -2.877,-0.357 -4.176,-1.116 m 1.023,-10.856 c 0.012,3.199 3.18,5.231 5.798,2.684 v 0 c 2.017,-2.377 1.298,-5.079 0.144,-6.239 v 0 c -0.648,-0.652 -1.407,-0.943 -2.161,-0.943 v 0 c -1.91,0 -3.791,1.87 -3.781,4.498 m 59.404,-22.918 c 0.628,3.111 4.702,4.675 7.671,2.01 v 0 c 2.277,-2.495 1.116,-5.223 -0.436,-6.363 v 0 c -0.843,-0.619 -1.78,-0.894 -2.695,-0.894 v 0 c -2.661,0 -5.132,2.325 -4.54,5.247 M 181.436,263.27 c -5.753,-1.863 -5.111,-11.28 2.692,-15.23 v 0 c 2.813,-1.423 5.056,-1.268 6.261,-1.185 v 0 c 25.114,-24.029 35.966,-29.85 40.647,-30.501 v 0 l 4.802,-0.063 2.223,0.055 c -10.012,1.092 -35.848,25.549 -43.529,33.018 v 0 c 3.19,6.87 -5.215,14.184 -11.212,14.185 v 0 c -0.664,0 -1.298,-0.089 -1.884,-0.279 m 1.536,-7.085 c 0.469,1.611 2.707,1.984 4.781,0.029 v 0 c 1.806,-1.969 1.238,-3.618 0.259,-4.16 v 0 c -0.365,-0.201 -0.764,-0.292 -1.175,-0.292 v 0 c -2.094,0 -4.465,2.362 -3.865,4.423 m 110.826,-10.894 c -0.358,-2.363 -11.515,-10.368 -16.55,-13.657 v 0 c -3.726,-2.368 -12.455,-7.915 -14.136,-10.368 v 0 c 0.065,-0.067 0.152,-0.156 0.218,-0.222 v 0 c 0.157,0.018 0.365,0.041 0.522,0.058 v 0 l 1.014,0.352 4.994,2.104 c 0.416,1.148 4.02,3.591 6.969,5.44 v 0 c 6.759,4.234 10.151,6.359 18.391,13.886 v 0 c 7.121,2.208 16.403,17.409 13.16,18.393 v 0 c -0.149,0.045 -0.31,0.067 -0.482,0.067 v 0 c -3.907,0.001 -13.377,-11.278 -14.1,-16.053 m 5.571,3.619 c -0.281,1.662 3.959,6.587 5.097,5.923 v 0 c 0.03,-0.017 0.062,-0.051 0.087,-0.073 v 0 c 0.463,-0.805 -1.016,-2.977 -2.058,-4.157 v 0 c -1.112,-1.259 -2.19,-2.021 -2.747,-2.021 v 0 c -0.206,0 -0.341,0.105 -0.379,0.328 M 185.801,232.868 c -0.043,-0.595 0.872,-1.272 1.607,-1.816 v 0 c 0.47,-0.304 1.102,-0.7 1.591,-0.97 v 0 c 1.758,-0.976 3.754,-1.393 5.515,-2.36 v 0 c 3.665,-2.016 6.798,-4.896 10.684,-6.55 v 0 c 0.379,-0.141 0.885,-0.328 1.271,-0.447 v 0 c 1.932,-0.599 4.318,-1.246 6.571,-1.81 v 0 c -3.034,0.866 -6.315,2.446 -13.643,7.898 v 0 c 3.995,0.307 1.384,2.621 0.821,3.081 v 0 c -3.156,2.579 -8.551,3.924 -11.771,3.924 v 0 c -1.552,0 -2.598,-0.312 -2.646,-0.95 m 8.469,-3.767 c -1.904,0.359 -4.371,1.685 -3.656,2.155 v 0 c 0.587,0.387 3.302,-0.125 4.834,-1.289 v 0 c 0.861,-0.756 0.21,-0.914 -0.109,-0.947 v 0 c -0.061,-0.006 -0.13,-0.009 -0.205,-0.009 v 0 c -0.243,0 -0.551,0.032 -0.864,0.09 m 21.417,-10.833 0.534,-0.113 c -0.978,0.22 -2.064,0.481 -3.181,0.76 v 0 c 0.873,-0.249 1.725,-0.443 2.647,-0.647"
               inkscape:connector-curvature="0" /></g></g></g></g><g
       id="text3768"
       style="font-variant:normal;font-weight:800;font-stretch:normal;font-size:44.98749924px;font-family:'Montserrat ExtraBold';-inkscape-font-specification:Montserrat-ExtraBold;writing-mode:lr-tb;fill:#2f50b9;fill-opacity:1;fill-rule:nonzero;stroke:none"
       transform="matrix(1,0,0,-1,82.1079,158.5244)"
       aria-label="TECHNO"><path
         id="path3957"
         d="M 0.21966552,-32.796063 H 30.445642 v 6.392267 H 19.572198 V 0 H 11.115075 V -26.403796 H 0.21966552 Z"
         inkscape:connector-curvature="0" /><path
         id="path3959"
         d="m 37.195523,-32.796063 h 22.823248 v 6.392267 H 45.652646 v 6.106702 h 13.509429 v 6.392266 H 45.652646 v 7.5125613 H 60.502035 V 0 H 37.195523 Z"
         inkscape:connector-curvature="0" /><path
         id="path3961"
         d="m 97.889285,-1.8012573 q -2.328455,1.20816039 -4.854608,1.82322385 -2.526154,0.61506347 -5.271973,0.61506347 -8.193524,0 -12.982232,-4.56904292 -4.788709,-4.5910094 -4.788709,-12.4330691 0,-7.864025 4.788709,-12.433068 4.788708,-4.59101 12.982232,-4.59101 2.745819,0 5.271973,0.615064 2.526153,0.615063 4.854608,1.823224 v 6.787664 q -2.350421,-1.603558 -4.634943,-2.350421 -2.284521,-0.746862 -4.810675,-0.746862 -4.52511,0 -7.117163,2.899584 -2.592053,2.899585 -2.592053,7.995825 0,5.074274 2.592053,7.973859 2.592053,2.8995849 7.117163,2.8995849 2.526154,0 4.810675,-0.7468628 2.284522,-0.7468628 4.634943,-2.3504211 z"
         inkscape:connector-curvature="0" /><path
         id="path3963"
         d="m 109.58041,-32.796063 h 8.45712 v 12.498969 h 12.47701 v -12.498969 h 8.45712 V 0 h -8.45712 V -13.904828 H 118.03753 V 0 h -8.45712 z"
         inkscape:connector-curvature="0" /><path
         id="path3965"
         d="m 150.33909,-32.796063 h 9.44562 l 11.92784,22.49375 v -22.49375 h 8.01779 V 0 h -9.44562 L 158.35688,-22.49375 V 0 h -8.01779 z"
         inkscape:connector-curvature="0" /><path
         id="path3967"
         d="m 206.07895,-27.260491 q -3.86611,0 -5.99687,2.855651 -2.13076,2.855652 -2.13076,8.039758 0,5.16214 2.13076,8.0177921 2.13076,2.8556518 5.99687,2.8556518 3.88808,0 6.01883,-2.8556518 2.13076,-2.8556521 2.13076,-8.0177921 0,-5.184106 -2.13076,-8.039758 -2.13075,-2.855651 -6.01883,-2.855651 z m 0,-6.128669 q 7.90796,0 12.38913,4.52511 4.48118,4.52511 4.48118,12.498968 0,7.9518924 -4.48118,12.4770022 -4.48117,4.52510982 -12.38913,4.52510982 -7.88599,0 -12.38914,-4.52510982 -4.48117,-4.5251098 -4.48117,-12.4770022 0,-7.973858 4.48117,-12.498968 4.50315,-4.52511 12.38914,-4.52511 z"
         inkscape:connector-curvature="0" /></g><g
       id="text3772"
       style="font-variant:normal;font-weight:normal;font-stretch:normal;font-size:44.98749924px;font-family:Montserrat;-inkscape-font-specification:Montserrat-Regular;writing-mode:lr-tb;fill:#2f50b9;fill-opacity:1;fill-rule:nonzero;stroke:none"
       transform="scale(1,-1)"
       aria-label="LAB"><path
         id="path3950"
         d="m 315.10955,-193.20016 h 4.43725 v 29.06175 h 15.96968 v 3.73431 h -20.40693 z"
         inkscape:connector-curvature="0" /><path
         id="path3952"
         d="m 357.15723,-188.82882 -6.01884,16.32115 h 12.05964 z m -2.50419,-4.37134 h 5.03034 l 12.49897,32.79606 h -4.61298 l -2.98745,-8.41319 h -14.78349 l -2.98745,8.41319 h -4.67888 z"
         inkscape:connector-curvature="0" /><path
         id="path3954"
         d="m 387.38795,-176.06625 v 12.0157 h 7.11716 q 3.58055,0 5.29394,-1.47176 1.73536,-1.49372 1.73536,-4.54707 0,-3.07532 -1.73536,-4.52511 -1.71339,-1.47176 -5.29394,-1.47176 z m 0,-13.48746 v 9.88495 h 6.568 q 3.25105,0 4.83264,-1.20817 1.60356,-1.23012 1.60356,-3.73431 0,-2.48222 -1.60356,-3.71235 -1.58159,-1.23012 -4.83264,-1.23012 z m -4.43724,-3.64645 h 11.33474 q 5.07427,0 7.82009,2.10879 2.74582,2.10879 2.74582,5.99687 0,3.00941 -1.40586,4.78871 -1.40586,1.77929 -4.12971,2.21862 3.27302,0.70293 5.07427,2.94351 1.82323,2.21863 1.82323,5.55754 0,4.39331 -2.98745,6.78767 -2.98746,2.39435 -8.50106,2.39435 h -11.77407 z"
         inkscape:connector-curvature="0" /></g></g></svg>